<?xml version="1.0" encoding="utf-8"?>
<!-- Generator: Adobe Illustrator 23.0.1, SVG Export Plug-In . SVG Version: 6.00 Build 0)  -->
<svg version="1.1" id="Layer_1" xmlns="http://www.w3.org/2000/svg" xmlns:xlink="http://www.w3.org/1999/xlink" x="0px" y="0px"
	 viewBox="0 0 139.5 27" style="enable-background:new 0 0 139.5 27;" xml:space="preserve">
<style type="text/css">
	.st0{fill-rule:evenodd;clip-rule:evenodd;fill:#DA291C;}
	.st1{fill-rule:evenodd;clip-rule:evenodd;}
</style>
<title>safelite-logo</title>
<g id="Mobile-Navigation">
	<g id="Safelite_logo">
		<g id="Page-1">
			<path id="Fill-1" class="st0" d="M56.6,0.9C49.5,1.1,41.5,5.1,37.8,8c3.9-0.5,7.9-0.3,11.7,0.7C49.7,7,50.3,5.4,51.3,4
				C52.5,2.3,56.6,0.9,56.6,0.9"/>
			<path id="Fill-3" class="st1" d="M33.4,8.3c5.4-3.4,11.3-5.8,17.5-7.2c-4.8,0.2-9.6,1.2-14.1,2.8C27.3,7.3,25,10,25,10
				C31.1,8.2,33.4,8.3,33.4,8.3"/>
			<g id="Group-7">
				<g>
					<path id="Fill-5" class="st0" d="M9.1,16.6l0.1-0.5c0.1-0.7-0.2-1.3-1.1-1.3c-0.8,0-1.6,0.5-1.8,1.3c-0.5,2.4,7.8,1.2,6.8,5.6
						c-0.5,2.6-3.1,3.7-7.4,3.7c-4.1,0-6.1-0.9-5.6-3.4l0.1-0.4h4.7l-0.1,0.5c-0.2,1,0.4,1.4,1.3,1.4C7,23.6,7.8,23,8,22.1
						c0.5-2.4-7.4-1.2-6.5-5.4c0.5-2.4,2.8-3.8,7-3.8s5.8,1.1,5.3,3.7L9.1,16.6z"/>
				</g>
			</g>
			<path id="Fill-8" class="st0" d="M19.5,21.5c-0.6,0.1-1,0.5-1.1,1.1c-0.2,0.5,0.1,1,0.6,1.1c0.1,0,0.2,0,0.3,0
				c0.8,0.1,1.6-0.5,1.7-1.4c0,0,0,0,0,0l0.2-1.1C20.5,21.3,20,21.4,19.5,21.5z M21.6,18.8c0.1-0.5-0.2-0.8-1-0.8
				c-0.8,0-1.5,0.6-1.5,1.4h-3.8c0.5-2.4,3.7-2.9,5.7-2.9c3.1,0,5.2,0.5,4.7,2.7l-0.9,4.1c-0.2,0.6-0.2,1.2,0,1.8h-4.3
				c-0.1-0.3-0.1-0.7-0.1-1l0,0c-0.9,0.8-2.1,1.2-3.3,1.2c-2.7,0-3.5-1-3.2-2.5s1.3-2.3,4.2-2.7L20,20c0.9-0.1,1.1-0.1,1.3-0.2
				L21.6,18.8z"/>
			<path id="Fill-10" class="st0" d="M28,18.6h-1.6l0.4-1.9h1.5l0.3-1.3c0.4-1.7,1.5-2.3,4.6-2.3c0.6,0,1.4,0,2.1,0.1L35,14.7
				c-0.2,0-0.5,0-0.7,0c-0.5,0-1.1,0.2-1.2,0.6l-0.3,1.4h1.8l-0.4,1.8h-1.8L31,25.2h-4.4L28,18.6z"/>
			<path id="Fill-12" class="st0" d="M41.1,19.3c0.2-0.9,0-1.3-1-1.3s-1.3,0.4-1.5,1.3l-0.1,0.6H41L41.1,19.3z M38.2,21.5l-0.3,1.3
				c-0.2,0.9,0.3,1.1,1,1.1c0.8,0,1.4-0.5,1.6-1.7h4c-0.5,2.1-2.2,3.2-5.9,3.2c-4.3,0-5.4-1.2-4.7-4.5s2.6-4.5,6.6-4.5
				c3.5,0,5.1,1,4.5,4.1l-0.2,0.9H38.2z"/>
			<polygon id="Fill-14" class="st0" points="48.2,12.7 52.7,12.7 50,25.2 45.6,25.2 			"/>
			<path id="Fill-16" class="st0" d="M54.6,12.7H59l-0.5,2.6h-4.4L54.6,12.7z M53.8,16.7h4.4l-1.8,8.5H52L53.8,16.7z"/>
			<path id="Fill-18" class="st0" d="M59.2,16.7h1.5l0.2-1.1l5.2-3.6l-1,4.6h1.8l-0.4,1.9h-1.8l-0.9,4.3c-0.1,0.5,0.2,0.7,0.9,0.7
				h0.7l-0.4,1.7c-0.8,0.1-1.7,0.1-2.4,0.1c-2.7,0-3.7-0.3-3.3-2.2l1-4.5h-1.5L59.2,16.7z"/>
			<path id="Fill-20" class="st0" d="M73.7,19.3c0.2-0.9,0-1.3-1-1.3s-1.3,0.4-1.5,1.3l-0.1,0.6h2.4L73.7,19.3z M70.8,21.5l-0.3,1.3
				c-0.2,0.9,0.3,1.1,1,1.1c0.8,0,1.4-0.5,1.6-1.7h4c-0.5,2.1-2.2,3.2-5.9,3.2c-4.3,0-5.4-1.2-4.7-4.5s2.6-4.5,6.6-4.5
				c3.6,0,5.1,1,4.5,4.1l-0.2,0.9H70.8z"/>
			<g id="Group-24">
				<g>
					<path id="Fill-22" class="st0" d="M79.8,23.8c0.4,0,0.4-0.2,0.4-0.3s-0.1-0.3-0.4-0.3h-0.4v0.6H79.8z M79.4,24.2v1H79v-2.4h0.8
						c0.4,0,0.9,0.1,0.9,0.7c0,0.3-0.2,0.5-0.5,0.6l0,0c0.3,0.1,0.4,0.2,0.4,0.5c0,0.2,0.1,0.5,0.2,0.7h-0.5c0-0.1-0.1-0.3-0.1-0.4
						c0-0.2,0-0.4-0.1-0.5c-0.1-0.1-0.2-0.1-0.3-0.1L79.4,24.2z M81.5,24c0-0.9-0.8-1.7-1.7-1.7c-0.9,0-1.7,0.8-1.7,1.7
						c0,0.9,0.8,1.7,1.7,1.7C80.8,25.7,81.5,25,81.5,24C81.5,24,81.5,24,81.5,24z M77.7,24c0-1.1,0.9-2.1,2.1-2.1s2.1,0.9,2.1,2.1
						s-0.9,2.1-2.1,2.1C78.7,26.1,77.7,25.2,77.7,24C77.7,24,77.7,24,77.7,24z"/>
				</g>
			</g>
			<path id="Fill-25" class="st1" d="M87.2,22.7h3.2l-0.7-4.1L87.2,22.7z M83.9,25.9l5.4-8.5h1.3l1.6,8.5h-1.3l-0.4-2.2h-3.9
				l-1.4,2.2H83.9z"/>
			<g id="Group-29">
				<g>
					<path id="Fill-27" class="st1" d="M98.1,20h1.1L98,25.9h-1.1l0.2-0.9l0,0c-0.6,0.7-1.4,1-2.2,1c-1.2,0-1.7-0.9-1.5-2.1l0.8-4
						h1.1l-0.7,3.5c-0.2,1-0.1,1.8,0.9,1.8c0.6,0,1.2-0.3,1.5-0.9c0.2-0.4,0.4-0.9,0.5-1.4L98.1,20z"/>
				</g>
			</g>
			<g id="Group-32">
				<g>
					<path id="Fill-30" class="st1" d="M101.3,20l0.3-1.3l1.2-0.4l-0.3,1.6h1.4l-0.2,0.8h-1.4l-0.8,3.8c-0.1,0.4,0.2,0.6,0.6,0.6
						c0.2,0,0.4,0,0.6-0.1l-0.2,0.9c-0.3,0-0.5,0.1-0.8,0.1c-0.2,0-0.5,0-0.7,0c-0.2,0-0.5-0.2-0.6-0.4c-0.1-0.3-0.2-0.3,0-1.1
						l0.8-3.8h-1l0.2-0.8L101.3,20z"/>
				</g>
			</g>
			<g id="Group-35">
				<g>
					<path id="Fill-33" class="st1" d="M106.3,25.3c1.3,0,2-1.1,2.2-2.3s0.1-2.3-1.3-2.3s-2,1.1-2.2,2.3S105,25.3,106.3,25.3
						 M109.7,23c-0.2,1.8-1.8,3.1-3.6,3.1c-1.9,0-2.7-1.3-2.3-3.1c0.2-1.8,1.8-3.1,3.6-3.1C109.4,19.8,110.1,21.1,109.7,23"/>
				</g>
			</g>
			<path id="Fill-36" class="st1" d="M117.6,19.5c0-1-0.8-1.3-1.7-1.3c-2.1,0-3.2,1.8-3.5,3.4c-0.4,2.2,0,3.4,2.5,3.4
				c0.6,0,1.2-0.1,1.8-0.3l0.5-2.4h-1.9l0.2-1h3.1l-0.9,4.2c-1,0.3-2,0.5-3,0.5c-1.1,0.1-2.1-0.2-2.9-1c-0.7-1-0.9-2.3-0.5-3.5
				c0.2-1,0.7-1.8,1.3-2.6c0.9-1.2,2.3-1.9,3.8-1.8c1.4,0,2.9,0.7,2.6,2.3L117.6,19.5z"/>
			<polygon id="Fill-38" class="st1" points="119.2,25.9 121,17.4 122.1,17.4 120.3,25.9 			"/>
			<g id="Group-42">
				<g>
					<path id="Fill-40" class="st1" d="M124.9,23c-0.7,0-1.6,0.3-1.8,1.1s0.3,1.1,0.9,1.1c1.3,0,1.8-1.1,2-2.2H124.9z M126.2,22.3
						c0.2-1,0.3-1.6-0.9-1.6c-0.6,0-1.1,0.4-1.2,1h-1.2c0.3-1.1,1.4-1.9,2.6-1.8c1.2,0,2.3,0.4,2,2l-0.6,2.8
						c-0.1,0.3-0.2,0.8-0.2,1.2h-0.8c-0.1,0-0.3,0.1-0.3-0.1s0.1-0.5,0.1-0.8l0,0c-0.5,0.7-1.2,1.1-2.1,1.1c-1,0-2-0.5-1.7-1.7
						c0.3-1.7,1.9-2.1,3.3-2.1L126.2,22.3z"/>
				</g>
			</g>
			<g id="Group-45">
				<g>
					<path id="Fill-43" class="st1" d="M131.5,19.8c1.1,0,2.3,0.5,1.9,1.8h-1.2c0.2-0.8-0.3-1-1-1c-0.6,0-1.1,0.4-1.2,1
						c-0.1,0.7,0.9,0.7,1.3,0.8c0.9,0.3,2.1,0.5,1.8,1.8s-1.8,1.9-3,1.9s-2.2-0.6-1.9-1.9h1.2c-0.1,0.5,0.1,0.9,0.6,1.1
						c0.1,0,0.3,0.1,0.4,0c0.7,0.1,1.3-0.3,1.5-1c0.3-1.3-3.5-0.3-3-2.6C129.3,20.5,130.4,19.8,131.5,19.8"/>
				</g>
			</g>
			<g id="Group-48">
				<g>
					<path id="Fill-46" class="st1" d="M137.5,19.8c1.1,0,2.3,0.5,1.9,1.8h-1.2c0.2-0.8-0.3-1-1-1c-0.6,0-1.1,0.4-1.2,1
						c-0.1,0.7,0.9,0.7,1.3,0.8c0.9,0.3,2.1,0.5,1.8,1.8s-1.8,1.9-3,1.9s-2.1-0.6-1.9-1.9h1.2c-0.1,0.5,0.1,0.9,0.6,1.1
						c0.1,0,0.3,0.1,0.4,0c0.7,0.1,1.3-0.3,1.5-1c0.3-1.3-3.5-0.3-3-2.6C135.3,20.5,136.4,19.8,137.5,19.8"/>
				</g>
			</g>
		</g>
	</g>
</g>
</svg>
